<svg xmlns="http://www.w3.org/2000/svg" width="1024" height="1024" viewBox="0 0 1024 1024">
<g>
<path d="M 875.54 484.65 C869.95,487.33 867.35,487.99 862.53,487.96 C850.12,487.89 839.02,481.20 833.50,470.47 C830.89,465.40 830.50,463.58 830.51,456.56 C830.52,449.77 830.97,447.59 833.32,442.77 C836.71,435.86 842.42,430.74 849.92,427.91 C854.45,426.20 857.09,425.89 864.00,426.22 C876.69,426.84 884.31,431.51 890.06,442.20 C893.10,447.85 893.45,449.32 893.46,456.50 C893.47,469.80 887.73,478.81 875.54,484.65 ZM 487.97 485.02 C483.34,487.38 471.76,488.51 466.44,487.13 C464.75,486.69 461.01,485.04 458.11,483.47 C444.67,476.15 438.72,458.41 444.95,444.23 C447.85,437.62 456.16,429.81 462.64,427.61 C468.66,425.56 480.30,425.54 486.27,427.58 C492.34,429.64 499.43,436.00 502.80,442.38 C505.17,446.88 505.49,448.60 505.45,456.50 C505.40,463.77 504.96,466.41 503.11,470.20 C500.47,475.64 494.06,481.91 487.97,485.02 ZM 732.50 452.52 L 731.50 486.50 L 724.96 486.79 C721.36,486.95 718.10,486.76 717.71,486.37 C717.32,485.99 717.00,472.47 717.00,456.33 L 717.00 427.00 L 731.56 427.00 L 756.50 460.50 L 757.05 427.00 L 771.00 427.00 L 771.00 487.00 L 765.25 486.98 C758.62,486.97 758.38,486.84 754.45,481.50 C752.83,479.30 747.23,471.88 742.00,465.01 ZM 666.63 481.50 L 664.11 487.00 L 657.11 487.00 C653.27,487.00 649.93,486.66 649.70,486.25 C649.48,485.84 654.74,472.35 661.40,456.27 L 673.50 427.04 L 688.68 427.00 L 699.82 454.50 C705.95,469.62 711.25,483.14 711.60,484.54 L 712.24 487.09 L 704.87 486.80 L 697.50 486.50 L 695.06 481.25 L 692.62 476.00 L 669.15 476.00 ZM 930.50 486.90 C921.30,489.41 907.41,486.60 899.61,480.65 L 895.96 477.87 L 897.88 475.18 C898.94,473.71 900.89,471.49 902.22,470.25 L 904.63 467.99 L 910.18 471.00 C920.38,476.52 930.00,475.80 930.00,469.50 C930.00,466.52 927.21,464.96 917.63,462.61 C905.15,459.54 899.93,455.41 898.42,447.41 C896.92,439.49 903.47,429.35 911.52,427.12 C920.91,424.51 932.24,426.27 940.29,431.58 L 944.08 434.08 L 942.07 436.79 C940.96,438.28 939.23,440.55 938.22,441.82 L 936.38 444.15 L 931.54 441.57 C923.58,437.34 913.00,438.41 913.00,443.45 C913.00,445.65 915.41,446.95 925.21,450.01 C930.40,451.63 936.19,453.99 938.07,455.25 C950.18,463.34 945.52,482.79 930.50,486.90 ZM 639.46 484.58 C630.81,489.65 616.15,488.58 605.70,482.12 C599.49,478.29 599.37,477.63 604.01,472.61 L 608.16 468.10 L 614.01 471.16 C621.28,474.97 627.96,475.91 631.48,473.60 C634.42,471.68 634.73,468.96 632.25,466.75 C631.29,465.90 626.89,464.23 622.49,463.05 C607.98,459.17 602.97,454.90 602.26,445.79 C601.69,438.61 604.92,432.46 611.03,429.06 C617.39,425.52 629.40,425.00 637.00,427.93 C640.03,429.09 643.58,430.95 644.90,432.06 C647.59,434.30 647.17,435.88 642.47,441.28 L 640.05 444.06 L 634.83 441.41 C629.09,438.51 621.10,437.84 618.44,440.05 C617.59,440.76 617.03,442.48 617.20,443.91 C617.46,446.19 618.40,446.78 625.00,448.81 C642.43,454.18 646.16,456.47 648.11,462.97 C649.51,467.65 648.61,474.46 646.03,478.70 C644.98,480.43 642.02,483.07 639.46,484.58 ZM 547.66 485.17 C543.21,487.44 532.32,488.38 526.75,486.98 C522.17,485.82 511.80,480.67 510.22,478.77 C509.30,477.66 509.93,476.41 513.28,472.68 L 517.50 467.98 L 524.37 471.49 C531.89,475.33 537.18,475.96 540.78,473.44 C543.67,471.41 543.68,467.44 540.79,465.89 C539.58,465.24 535.32,463.89 531.34,462.90 C518.16,459.60 513.09,455.63 511.55,447.40 C509.98,439.03 516.40,429.32 525.04,426.99 C534.62,424.40 548.80,427.10 555.23,432.75 C556.85,434.17 556.76,434.53 553.80,438.38 C552.06,440.65 550.31,442.89 549.90,443.38 C549.48,443.86 547.64,443.32 545.79,442.18 C538.30,437.55 528.72,437.34 526.70,441.76 C525.73,443.88 525.89,444.49 527.75,446.00 C528.95,446.97 532.99,448.52 536.72,449.43 C551.03,452.95 558.00,459.09 558.00,468.20 C558.00,475.86 554.44,481.71 547.66,485.17 ZM 811.00 440.00 L 811.00 487.00 L 804.17 487.00 C800.41,487.00 797.03,486.70 796.67,486.33 C796.30,485.97 796.00,475.39 796.00,462.83 L 796.00 440.00 L 778.00 440.00 L 778.00 427.00 L 829.00 427.00 L 829.00 440.00 ZM 439.80 480.59 L 439.50 486.50 L 419.44 486.77 C408.40,486.92 399.06,486.73 398.69,486.35 C398.31,485.98 398.00,472.47 398.00,456.33 L 398.00 427.00 L 413.00 427.00 L 413.00 473.00 L 425.25 473.02 C431.99,473.02 438.09,473.40 438.80,473.86 C439.70,474.43 440.01,476.54 439.80,480.59 ZM 466.59 471.79 C469.63,473.57 471.64,474.00 475.59,473.72 C487.97,472.85 494.67,459.71 488.75,447.96 C483.15,436.85 466.71,436.44 459.94,447.24 C458.29,449.87 457.96,451.79 458.23,457.22 C458.61,464.96 460.47,468.20 466.59,471.79 ZM 855.45 472.59 C860.23,474.68 866.23,474.32 870.08,471.73 C880.09,464.98 881.48,452.24 873.11,443.88 C867.98,438.75 861.95,437.82 855.26,441.14 C847.38,445.05 843.54,453.20 845.90,461.05 C847.34,465.88 851.46,470.86 855.45,472.59 ZM 594.00 454.00 L 594.00 466.00 L 580.17 466.00 C572.56,466.00 566.03,465.70 565.67,465.33 C565.30,464.97 565.00,462.27 565.00,459.33 L 565.00 454.00 ZM 969.80 458.75 L 969.50 463.50 L 959.95 463.78 C954.70,463.94 950.09,463.75 949.70,463.37 C949.32,462.98 949.00,460.72 949.00,458.33 L 949.00 454.00 L 970.11 454.00 ZM 674.67 463.25 C675.17,464.09 688.00,464.30 688.00,463.47 C688.00,462.04 681.77,447.00 681.18,447.01 C680.24,447.03 674.11,462.32 674.67,463.25 Z" fill="rgb(2,2,2)"/>
<path d="M 325.62 602.00 C322.57,606.13 317.18,612.66 313.65,616.51 L 307.22 623.50 L 307.72 618.95 C308.15,615.00 307.48,612.80 302.58,602.00 C299.48,595.17 296.39,589.23 295.72,588.81 C295.05,588.38 292.35,588.02 289.71,588.02 C282.06,587.99 277.00,583.20 277.00,575.98 C277.00,572.17 278.28,569.63 282.64,564.75 C284.49,562.68 286.00,560.63 286.00,560.18 C286.00,558.85 277.94,537.83 275.88,533.78 C274.84,531.74 273.12,529.60 272.06,529.03 C267.43,526.55 265.90,526.98 209.50,546.35 C200.70,549.37 177.52,557.32 158.00,564.02 C138.48,570.72 119.25,577.32 115.27,578.68 C107.35,581.41 103.00,585.31 103.00,589.70 C103.00,591.77 101.99,590.77 97.64,584.38 C91.00,574.62 87.88,568.51 84.94,559.50 C82.74,552.74 82.65,551.19 82.50,513.50 C82.42,492.05 82.51,480.71 82.70,488.29 C82.92,496.88 83.42,501.86 84.03,501.48 C84.56,501.15 85.00,501.81 85.00,502.94 C85.00,504.07 85.41,505.00 85.92,505.00 C86.42,505.00 87.45,505.24 88.20,505.52 C88.96,505.81 90.49,505.19 91.62,504.14 C94.24,501.70 100.53,500.67 104.92,501.95 C109.14,503.19 113.00,502.33 113.02,500.14 C113.02,499.24 113.68,496.70 114.47,494.50 C115.26,492.30 116.03,487.35 116.17,483.50 C116.31,479.65 116.67,484.60 116.96,494.50 L 117.50 512.50 L 126.00 513.11 L 126.00 524.00 L 133.00 524.00 L 133.00 499.00 C133.00,483.00 133.36,474.00 134.00,474.00 C135.20,474.00 135.33,474.98 135.03,481.40 C134.71,488.12 137.12,509.00 138.21,509.00 C138.70,509.00 139.57,510.35 140.15,512.00 C141.56,516.04 145.00,516.19 145.00,512.20 C145.00,510.66 144.47,508.87 143.82,508.22 C142.91,507.31 142.95,506.46 143.97,504.55 C144.70,503.19 145.68,502.30 146.15,502.59 C146.62,502.88 147.08,499.38 147.18,494.81 C147.34,486.95 147.39,487.15 148.04,498.50 C148.42,505.10 148.79,511.74 148.86,513.25 C149.06,517.30 150.63,516.60 152.25,511.75 C153.91,506.78 156.35,506.12 156.83,510.50 C157.01,512.15 157.57,513.93 158.08,514.45 C158.58,514.97 159.00,516.66 159.00,518.20 C159.00,519.74 159.45,521.00 160.00,521.00 C160.55,521.00 161.00,519.91 161.00,518.57 C161.00,516.81 161.62,516.05 163.25,515.82 C165.44,515.51 165.51,515.10 166.00,501.00 C166.54,485.45 167.56,485.09 168.80,500.00 L 169.50 508.50 L 172.75 508.81 C175.45,509.07 176.00,509.54 176.00,511.59 C176.00,513.52 176.64,514.18 178.96,514.64 C181.86,515.22 181.92,515.36 182.26,522.37 C182.45,526.29 182.76,517.58 182.94,503.00 C183.22,481.40 183.43,478.23 184.05,485.86 C184.47,491.01 185.31,495.71 185.91,496.31 C186.70,497.10 187.00,497.05 187.00,496.14 C187.00,495.45 187.43,495.15 187.95,495.47 C188.48,495.80 189.05,493.76 189.26,490.78 C189.46,487.87 189.71,495.49 189.82,507.69 C189.92,519.90 190.39,530.12 190.87,530.42 C192.01,531.12 192.98,525.11 192.99,517.25 L 193.00 511.00 L 196.47 511.00 C199.23,511.00 200.26,510.43 201.45,508.25 C205.27,501.28 205.33,501.27 211.45,506.50 L 217.00 511.24 L 217.19 477.87 L 217.37 444.50 L 218.05 468.00 C218.43,480.92 218.79,492.86 218.87,494.51 C218.99,497.38 219.21,497.53 223.34,497.51 C230.60,497.49 231.00,496.66 231.00,481.58 C231.00,472.66 231.39,468.01 232.20,467.20 C234.14,465.26 235.47,465.83 233.65,467.83 C232.21,469.43 232.01,472.58 232.12,493.08 C232.18,505.96 232.43,515.73 232.68,514.79 C233.05,513.38 234.59,513.03 241.32,512.79 L 249.50 512.50 L 249.56 509.50 C249.60,507.85 249.71,502.11 249.81,496.75 C250.00,487.07 250.02,487.00 252.50,487.00 C255.00,487.00 255.00,487.00 255.00,477.07 C255.00,468.46 254.77,467.09 253.25,466.69 C251.64,466.27 251.63,466.22 253.21,466.12 C254.16,466.05 256.07,467.68 257.46,469.73 C258.86,471.78 260.06,473.02 260.12,472.48 C260.19,471.94 260.56,466.77 260.95,461.00 C261.62,451.09 261.67,451.53 261.83,468.70 L 262.00 486.91 L 275.50 487.50 L 275.78 501.25 L 276.06 515.00 L 284.91 515.00 L 284.46 510.25 C283.45,499.58 280.83,445.28 281.18,442.50 C281.39,440.85 281.92,446.70 282.35,455.50 C282.78,464.30 283.60,474.20 284.17,477.50 C284.74,480.80 285.35,485.52 285.51,488.00 C285.68,490.48 286.23,494.30 286.74,496.50 L 287.66 500.50 L 289.00 497.74 C289.94,495.80 290.86,495.14 292.09,495.53 C294.24,496.21 295.08,493.97 296.03,485.00 C296.54,480.13 296.75,482.59 296.86,494.82 C296.94,503.85 297.46,511.99 298.04,513.07 C298.70,514.31 300.13,515.00 302.04,515.00 L 305.00 515.00 L 305.00 477.00 L 317.00 477.00 L 317.02 468.75 C317.03,463.34 317.35,461.00 317.95,461.95 C318.45,462.75 318.71,463.67 318.51,463.99 C318.31,464.31 318.05,467.93 317.92,472.03 C317.80,476.14 317.28,479.77 316.78,480.10 C315.48,480.95 311.00,479.95 311.00,478.81 C311.00,478.29 310.42,478.45 309.72,479.18 C308.75,480.18 308.59,483.61 309.05,493.50 C309.39,500.65 309.93,507.17 310.25,508.00 C310.57,508.83 311.11,510.77 311.45,512.32 C311.87,514.21 312.61,515.03 313.71,514.82 C314.92,514.58 315.37,513.33 315.42,510.00 C315.50,505.78 315.67,505.50 318.27,505.46 C319.91,505.43 322.15,504.30 323.76,502.69 C326.21,500.25 326.52,499.12 326.84,491.73 C327.03,487.21 327.60,483.07 328.09,482.55 C328.59,482.03 329.00,480.40 329.00,478.92 C329.00,475.82 330.99,473.76 332.87,474.92 C333.83,475.51 333.62,475.87 332.08,476.27 C330.03,476.81 330.00,477.22 330.01,508.66 C330.02,526.17 330.30,541.51 330.63,542.75 C330.98,544.07 332.01,545.00 333.12,545.00 C334.92,545.00 335.00,543.61 335.06,511.25 C335.11,488.02 335.43,478.27 336.11,479.97 C336.65,481.33 337.37,489.11 337.71,497.26 C338.04,505.41 338.69,512.31 339.16,512.60 C339.62,512.88 340.06,512.30 340.13,511.31 C340.20,510.31 340.35,508.60 340.48,507.50 C341.74,496.03 343.20,437.08 342.71,416.79 L 342.11 391.50 L 336.50 386.90 L 339.50 388.14 C344.02,390.01 346.92,392.98 348.08,396.94 C348.77,399.31 349.01,426.48 348.81,478.50 L 348.50 556.50 L 345.12 566.27 C341.33,577.20 333.95,590.73 325.62,602.00 ZM 237.04 667.69 C227.44,672.26 218.44,675.95 217.04,675.88 C212.57,675.68 210.72,674.89 199.14,668.18 L 187.78 661.61 L 191.64 660.26 C199.83,657.39 238.76,645.75 293.33,629.83 C297.09,628.73 300.34,628.01 300.55,628.21 C301.02,628.69 291.65,636.06 282.56,642.35 C271.37,650.10 255.81,658.75 237.04,667.69 ZM 99.57 539.81 C100.43,542.53 102.00,539.71 102.00,535.44 C102.00,533.00 102.45,531.00 103.00,531.00 C103.62,531.00 104.00,525.67 104.00,517.00 L 104.00 503.00 L 96.90 503.00 L 97.32 517.25 C97.70,530.01 98.27,535.73 99.57,539.81 ZM 438.57 526.00 C430.44,526.00 429.08,526.24 428.69,527.75 C428.30,529.23 428.21,529.25 428.12,527.87 C427.90,524.89 430.69,523.69 436.40,524.28 C442.26,524.88 444.00,523.99 444.00,520.38 C444.00,520.26 444.00,520.14 444.00,520.02 C444.00,518.62 444.01,517.60 443.55,516.87 C442.37,514.96 438.07,514.98 422.51,515.03 L 420.97 515.04 C404.10,515.10 399.60,515.07 398.42,517.03 C397.99,517.74 398.00,518.72 398.01,520.06 C398.01,520.15 398.01,520.24 398.02,520.33 C398.04,524.47 399.35,525.36 403.29,523.94 C406.31,522.85 407.31,522.90 410.16,524.31 L 413.50 525.95 L 397.00 526.00 L 397.00 514.00 L 448.00 514.00 L 448.00 526.00 ZM 685.38 557.63 L 684.70 573.00 L 671.00 573.00 L 671.00 549.33 C671.00,536.32 671.34,526.00 671.75,526.42 C672.16,526.83 672.50,536.92 672.50,548.83 L 672.50 570.50 L 676.82 570.81 C679.20,570.98 681.72,570.64 682.43,570.06 C683.38,569.27 683.75,563.60 683.90,547.76 C683.99,537.56 684.35,528.70 684.74,526.31 L 685.39 534.13 C685.76,538.61 685.76,549.18 685.38,557.63 ZM 267.50 502.45 C270.23,504.67 270.61,504.75 271.75,503.26 C272.44,502.35 273.00,500.13 273.00,498.31 C273.00,496.49 273.45,495.00 274.00,495.00 C274.55,495.00 275.00,494.14 275.00,493.10 C275.00,491.02 269.08,488.27 268.07,489.88 C267.75,490.37 265.92,491.45 264.00,492.28 C262.08,493.11 259.60,494.51 258.50,495.39 C256.52,496.98 256.52,497.02 258.44,498.50 C259.51,499.33 261.31,500.00 262.44,500.00 C263.57,500.01 265.85,501.11 267.50,502.45 ZM 469.00 562.83 L 469.00 573.00 L 455.00 573.00 L 455.00 543.50 C455.00,527.28 455.34,514.00 455.75,514.00 C456.16,514.00 456.43,526.38 456.34,541.51 C456.16,571.12 456.31,572.00 461.35,572.00 C466.28,572.00 467.68,569.70 467.84,561.39 C468.06,549.91 469.00,551.08 469.00,562.83 ZM 647.00 560.00 L 647.00 573.00 L 624.00 573.00 C611.35,573.00 601.00,572.64 601.00,572.21 C601.00,571.78 602.01,571.41 603.25,571.40 C604.49,571.39 614.41,571.30 625.30,571.19 L 645.11 571.00 L 644.80 566.25 L 644.50 561.50 L 633.50 560.95 L 622.50 560.40 L 634.75 560.20 ZM 428.86 570.53 C428.53,572.22 427.52,572.54 421.74,572.80 L 415.00 573.09 L 415.00 549.38 C415.00,536.34 415.18,525.85 415.40,526.08 C415.63,526.31 416.00,536.21 416.23,548.07 C416.47,559.93 416.99,570.17 417.39,570.82 C418.24,572.20 425.70,571.36 427.87,569.65 C428.94,568.80 429.15,568.99 428.86,570.53 ZM 603.38 520.83 C602.96,521.75 602.34,532.85 602.00,545.50 L 601.38 568.50 L 601.00 514.00 L 624.50 514.43 L 613.23 514.75 C602.23,515.06 601.99,515.11 603.06,517.11 C603.66,518.24 603.81,519.91 603.38,520.83 ZM 554.92 563.97 L 555.10 573.00 L 548.05 573.00 C541.59,573.00 541.00,572.83 541.00,570.93 C541.00,569.00 541.11,568.97 542.66,570.52 C543.82,571.68 545.24,572.00 547.32,571.59 C552.21,570.61 553.00,569.33 553.00,562.43 C553.00,557.24 553.40,555.69 555.25,553.76 C556.49,552.46 556.88,552.20 556.12,553.18 C555.14,554.43 554.79,557.58 554.92,563.97 ZM 251.02 494.76 C251.03,496.90 251.24,497.17 252.00,496.00 C252.70,494.92 252.97,494.87 252.98,495.80 C252.99,496.51 255.01,495.42 257.47,493.36 C260.90,490.49 261.68,489.32 260.85,488.31 C257.90,484.76 250.98,489.30 251.02,494.76 ZM 644.00 537.00 L 644.00 549.00 L 615.50 548.68 L 627.50 547.97 C634.10,547.58 640.29,546.93 641.25,546.52 C642.49,546.00 643.00,544.66 643.00,541.93 L 643.00 538.07 L 633.25 537.75 L 623.50 537.42 ZM 592.48 570.98 C594.30,572.99 594.28,573.00 585.71,573.00 C580.99,573.00 576.84,572.55 576.50,572.00 C576.11,571.37 578.26,571.00 582.24,571.00 C585.74,571.00 589.06,570.54 589.62,569.98 C590.32,569.28 591.23,569.60 592.48,570.98 ZM 703.00 520.00 C703.00,525.56 702.84,526.00 700.75,525.98 C699.35,525.98 698.95,525.68 699.69,525.21 C700.41,524.76 700.79,522.40 700.66,519.23 C700.50,515.53 700.82,514.00 701.72,514.00 C702.62,514.00 703.00,515.79 703.00,520.00 ZM 554.00 516.50 C554.00,519.52 553.83,519.57 552.23,517.00 C551.30,515.50 549.90,515.00 546.69,515.00 C544.33,515.00 541.86,515.54 541.20,516.20 C540.27,517.13 540.00,517.02 540.00,515.70 C540.00,514.26 541.08,514.00 547.00,514.00 C553.80,514.00 554.00,514.07 554.00,516.50 ZM 493.21 540.23 C492.78,548.10 492.57,549.26 491.75,548.43 C490.53,547.19 490.90,538.52 492.25,536.67 C493.30,535.24 493.45,535.81 493.21,540.23 ZM 615.22 556.75 C615.40,559.09 615.51,561.00 615.47,561.00 C615.42,561.00 614.58,560.41 613.60,559.70 C612.00,558.53 611.95,557.93 613.08,553.95 C614.40,549.31 614.68,549.68 615.22,556.75 ZM 503.50 572.00 C505.60,575.40 490.87,570.08 488.02,566.41 C486.60,564.59 486.63,564.58 488.52,566.13 C491.91,568.92 496.77,571.00 499.89,571.00 C501.54,571.00 503.16,571.45 503.50,572.00 ZM 661.27 525.26 C666.14,525.61 666.04,525.64 659.75,525.82 C653.02,526.00 653.00,525.99 653.00,523.28 C653.00,520.56 653.00,520.56 654.52,522.73 C655.68,524.38 657.30,524.98 661.27,525.26 ZM 172.77 623.75 C171.60,624.99 170.50,626.00 170.33,626.00 C170.15,626.00 170.00,624.99 170.00,623.75 C170.00,622.03 170.58,621.50 172.44,621.50 L 174.88 621.50 ZM 174.26 471.84 L 178.50 472.79 L 172.50 472.86 C167.95,472.92 166.92,472.69 168.26,471.91 C169.43,471.24 171.46,471.21 174.26,471.84 ZM 185.65 618.52 C186.42,620.54 186.01,620.80 183.23,620.09 C180.97,619.50 180.97,619.49 183.00,618.23 C184.72,617.16 185.14,617.21 185.65,618.52 ZM 203.60 613.83 C201.16,616.60 201.00,616.56 201.02,613.25 C201.03,611.29 201.28,610.90 201.90,611.88 C202.43,612.71 203.31,612.94 204.14,612.46 C204.89,612.02 204.64,612.63 203.60,613.83 ZM 520.00 514.00 C521.19,514.77 520.98,514.97 519.00,514.97 C517.62,514.97 515.83,514.53 515.00,514.00 C513.81,513.23 514.02,513.03 516.00,513.03 C517.38,513.03 519.17,513.47 520.00,514.00 ZM 518.00 572.00 C519.14,572.74 518.72,572.97 516.25,572.98 C514.46,572.99 513.00,572.55 513.00,572.00 C513.00,570.73 516.03,570.73 518.00,572.00 ZM 195.13 602.66 C195.74,603.40 196.08,603.95 195.87,603.88 C195.67,603.82 194.71,603.56 193.75,603.31 C191.52,602.73 191.50,601.40 193.72,600.55 C194.67,600.19 195.12,600.21 194.73,600.61 C194.34,601.00 194.52,601.92 195.13,602.66 ZM 225.32 591.61 C224.71,593.19 223.38,593.43 222.57,592.11 C222.27,591.63 222.88,591.00 223.94,590.73 C225.28,590.38 225.69,590.64 225.32,591.61 ZM 497.00 516.00 C497.00,516.55 495.99,516.99 494.75,516.98 C492.93,516.97 492.79,516.78 494.00,516.00 C495.94,514.75 497.00,514.75 497.00,516.00 ZM 684.80 526.00 C684.84,525.83 684.87,525.73 684.91,525.69 C685.37,525.23 687.48,525.04 689.62,525.26 L 693.50 525.66 L 689.11 525.83 Z" fill="rgb(175,18,17)"/>
<path d="M 191.07 481.86 C191.11,509.38 191.50,528.66 192.00,527.50 C192.47,526.40 192.89,522.24 192.93,518.25 L 193.00 511.00 L 192.99 517.25 C192.98,525.11 192.01,531.12 190.87,530.42 C190.39,530.12 189.92,519.90 189.82,507.69 C189.71,495.49 189.46,487.87 189.26,490.78 C189.05,493.76 188.48,495.80 187.95,495.47 C187.43,495.15 187.00,495.45 187.00,496.14 C187.00,497.05 186.70,497.10 185.91,496.31 C185.31,495.71 184.47,491.01 184.05,485.86 C183.43,478.23 183.22,481.40 182.94,503.00 C182.78,515.93 182.52,524.25 182.33,523.22 C182.46,522.30 182.63,514.46 182.76,503.00 C183.05,476.97 183.02,476.47 180.92,474.75 C178.51,472.78 169.85,472.35 165.57,473.98 C163.29,474.84 163.00,475.51 163.00,479.92 C163.00,482.65 162.47,485.21 161.82,485.61 C161.18,486.01 157.91,486.60 154.57,486.92 L 148.50 487.50 L 148.17 493.50 C148.07,495.34 148.06,497.56 148.12,499.89 L 148.04 498.50 C147.39,487.15 147.34,486.95 147.18,494.81 C147.08,499.38 146.62,502.88 146.15,502.59 C145.68,502.30 144.70,503.19 143.97,504.55 C142.95,506.46 142.91,507.31 143.82,508.22 C144.47,508.87 145.00,510.66 145.00,512.20 C145.00,516.19 141.56,516.04 140.15,512.00 C139.57,510.35 138.70,509.00 138.21,509.00 C137.12,509.00 134.71,488.12 135.03,481.40 C135.33,474.98 135.20,474.00 134.00,474.00 C133.36,474.00 133.00,483.00 133.00,499.00 L 133.00 474.00 L 117.96 474.00 L 118.50 512.50 L 122.25 512.81 L 125.45 513.08 L 117.50 512.50 L 116.96 494.50 C116.67,484.60 116.31,479.65 116.17,483.50 C116.03,487.35 115.26,492.30 114.47,494.50 C113.68,496.70 113.02,499.24 113.02,500.14 C113.00,502.33 109.14,503.19 104.92,501.95 C100.53,500.67 94.24,501.70 91.62,504.14 C90.49,505.19 88.96,505.81 88.20,505.52 C87.45,505.24 86.42,505.00 85.92,505.00 C85.41,505.00 85.00,504.07 85.00,502.94 C85.00,501.81 84.56,501.15 84.03,501.48 C83.42,501.86 82.92,496.88 82.70,488.29 C82.51,480.71 82.42,492.05 82.50,513.50 C82.65,551.19 82.74,552.74 84.94,559.50 C86.63,564.66 88.37,568.87 90.80,573.36 C88.39,568.90 86.62,564.69 84.89,559.50 L 82.54 552.50 L 82.24 475.14 C82.04,423.53 82.28,397.37 82.96,396.55 C83.52,395.87 83.69,395.02 83.32,394.66 C82.96,394.30 83.22,394.00 83.89,394.00 C84.57,394.00 84.88,393.62 84.59,393.15 C82.84,390.32 93.78,384.88 118.00,376.51 C179.66,355.22 211.39,345.00 215.80,345.00 C218.52,345.01 224.08,346.30 229.00,348.08 C238.32,351.45 300.42,373.47 314.00,378.22 C318.67,379.86 323.85,381.78 325.50,382.49 C330.02,384.44 332.44,385.33 333.01,385.24 C333.86,385.10 336.64,386.45 339.48,388.13 L 336.50 386.90 L 342.11 391.50 L 342.71 416.79 C343.20,437.08 341.74,496.03 340.48,507.50 C340.35,508.60 340.20,510.31 340.13,511.31 C340.06,512.30 339.62,512.88 339.16,512.60 C338.69,512.31 338.04,505.41 337.71,497.26 C337.37,489.11 336.65,481.33 336.11,479.97 C335.43,478.27 335.11,488.02 335.06,511.25 C335.01,537.55 334.95,543.39 333.96,544.66 C334.95,543.39 335.00,537.51 335.00,511.00 C335.00,478.54 334.92,477.00 333.14,477.00 C331.60,477.00 331.17,478.05 330.64,483.15 C330.23,487.07 330.03,501.47 330.03,515.16 C330.02,513.04 330.01,510.87 330.01,508.66 C330.00,477.22 330.03,476.81 332.08,476.27 C333.62,475.87 333.83,475.51 332.87,474.92 C330.99,473.76 329.00,475.82 329.00,478.92 C329.00,480.40 328.59,482.03 328.09,482.55 C327.60,483.07 327.03,487.21 326.84,491.73 C326.52,499.12 326.21,500.25 323.76,502.69 C322.15,504.30 319.91,505.43 318.27,505.46 C315.67,505.50 315.50,505.78 315.42,510.00 C315.37,513.33 314.92,514.58 313.71,514.82 C312.61,515.03 311.87,514.21 311.45,512.32 C311.11,510.77 310.57,508.83 310.25,508.00 C309.93,507.17 309.39,500.65 309.05,493.50 C308.59,483.61 308.75,480.18 309.72,479.18 C310.42,478.45 311.00,478.29 311.00,478.81 C311.00,479.95 315.48,480.95 316.78,480.10 C317.28,479.77 317.80,476.14 317.92,472.03 C318.05,467.93 318.31,464.31 318.51,463.99 C318.71,463.67 318.45,462.75 317.95,461.95 C317.35,461.00 317.03,463.34 317.02,468.75 L 317.00 477.00 L 317.00 461.00 L 298.00 461.00 L 298.00 487.33 C298.00,500.17 298.24,511.18 298.54,513.77 C298.34,513.56 298.17,513.32 298.04,513.07 C297.46,511.99 296.94,503.85 296.86,494.82 C296.75,482.59 296.54,480.13 296.03,485.00 C295.08,493.97 294.24,496.21 292.09,495.53 C290.86,495.14 289.94,495.80 289.00,497.74 L 287.66 500.50 L 286.74 496.50 C286.23,494.30 285.68,490.48 285.51,488.00 C285.35,485.52 284.74,480.80 284.17,477.50 C283.60,474.20 282.78,464.30 282.35,455.50 C281.92,446.70 281.39,440.85 281.18,442.50 C281.00,443.97 281.64,459.82 282.44,476.01 C282.41,475.38 282.37,474.74 282.34,474.10 C280.82,444.18 280.38,439.65 278.97,439.28 C277.68,438.95 277.33,437.39 277.24,431.68 C277.18,427.73 276.84,421.24 276.48,417.25 L 275.84 410.00 L 264.14 410.00 L 263.58 425.75 C263.27,434.41 262.75,451.72 262.43,464.20 L 261.96 482.29 L 261.83 468.70 C261.67,451.53 261.62,451.09 260.95,461.00 C260.56,466.77 260.19,471.94 260.12,472.48 C260.06,473.02 258.86,471.78 257.46,469.73 C256.07,467.68 254.16,466.05 253.21,466.12 C251.63,466.22 251.64,466.27 253.25,466.69 C254.77,467.09 255.00,468.46 255.00,477.07 C255.00,487.00 255.00,487.00 252.50,487.00 C251.90,487.00 251.44,487.00 251.09,487.15 C251.39,486.97 251.77,486.89 252.25,486.82 C254.37,486.52 254.52,485.97 254.79,477.52 C255.15,466.46 254.73,466.00 244.03,466.00 C243.48,466.00 242.95,466.00 242.45,466.00 C238.57,465.98 236.12,465.97 234.59,467.14 C233.12,468.27 232.49,470.48 232.23,474.82 C232.42,470.12 232.84,468.73 233.65,467.83 C235.47,465.83 234.14,465.26 232.20,467.20 C231.39,468.01 231.00,472.66 231.00,481.58 C231.00,496.66 230.60,497.49 223.34,497.51 C219.21,497.53 218.99,497.38 218.87,494.51 C218.79,492.86 218.43,480.92 218.05,468.00 L 217.37 444.50 L 217.19 477.87 L 217.00 511.24 L 217.00 436.05 L 214.75 434.61 C209.42,431.21 204.43,430.59 197.52,432.46 L 191.00 434.22 ZM 175.45 659.92 C158.37,665.46 143.02,670.00 141.32,670.00 C139.63,670.00 137.74,669.39 137.12,668.64 C135.68,666.91 132.00,656.27 132.00,653.84 C132.00,652.83 131.60,652.00 131.12,652.00 C130.63,652.00 130.02,650.88 129.76,649.50 C129.45,647.89 129.73,647.00 130.56,647.00 C131.26,647.00 131.98,646.66 132.17,646.25 C132.35,645.84 134.15,644.08 136.18,642.34 C138.20,640.61 139.59,638.92 139.26,638.59 C138.93,638.27 139.22,638.00 139.89,638.00 C140.57,638.00 140.86,637.59 140.55,637.09 C140.24,636.58 140.43,636.02 140.97,635.84 C141.60,635.62 141.65,633.67 141.12,630.50 C139.88,623.15 139.77,622.89 136.50,619.97 C131.98,615.93 129.63,615.00 123.99,615.00 C119.21,615.00 115.20,613.14 116.71,611.62 C117.05,611.28 116.84,611.00 116.25,611.00 C115.24,611.00 113.44,605.49 114.17,604.67 C114.35,604.47 113.97,603.67 113.32,602.89 C111.08,600.18 107.63,589.62 108.86,589.21 C109.49,589.00 109.77,588.44 109.48,587.97 C109.19,587.50 110.43,586.42 112.23,585.57 C117.58,583.05 130.19,579.00 131.04,579.52 C131.47,579.79 131.98,579.67 132.16,579.26 C132.35,578.84 139.93,576.09 149.00,573.14 C158.07,570.19 174.95,564.72 186.50,560.97 C216.63,551.19 239.93,543.55 251.95,539.51 C257.69,537.58 263.64,536.00 265.17,536.00 C268.62,536.00 270.03,538.04 274.57,549.61 L 278.01 558.38 L 275.56 560.94 C271.26,565.43 268.68,572.65 269.35,578.32 C270.47,587.73 276.96,594.01 286.89,595.28 C291.97,595.94 292.00,595.97 295.99,606.35 C298.63,613.21 298.85,614.53 297.76,616.81 C297.07,618.25 295.38,619.99 294.00,620.68 C291.59,621.88 239.97,638.97 175.45,659.92 ZM 160.83 643.96 C161.75,644.50 162.91,644.95 163.40,644.97 C165.64,645.04 264.85,611.87 265.73,610.76 C267.27,608.81 268.18,604.00 267.02,604.00 C266.46,604.00 266.07,603.66 266.16,603.25 C266.24,602.84 265.12,599.92 263.67,596.76 C262.22,593.60 260.77,589.56 260.46,587.78 C260.15,586.01 259.48,584.30 258.97,583.98 C258.46,583.67 257.88,582.53 257.68,581.46 C257.47,580.38 256.97,578.75 256.57,577.83 C256.17,576.91 255.72,575.56 255.58,574.83 C255.43,574.10 254.79,572.24 254.16,570.71 C253.53,569.17 252.73,566.69 252.37,565.21 C250.93,559.18 247.99,558.63 237.31,562.40 C233.56,563.72 211.82,570.96 189.00,578.48 C166.18,586.00 146.71,592.86 145.75,593.73 C143.29,595.96 143.50,597.45 147.85,608.13 C152.02,618.38 157.47,634.55 158.51,639.74 C158.86,641.53 159.91,643.43 160.83,643.96 ZM 647.00 560.00 L 634.75 560.20 L 622.50 560.40 L 633.50 560.95 L 644.50 561.50 L 644.80 566.25 L 645.11 571.00 L 625.30 571.19 C614.41,571.30 604.49,571.39 603.25,571.40 C602.01,571.41 601.00,571.78 601.00,572.21 C601.00,572.64 611.08,572.99 623.50,573.00 L 600.00 573.00 L 600.00 512.96 L 646.50 513.50 L 647.09 525.95 L 615.50 526.50 L 615.19 530.89 C615.01,533.30 615.33,535.73 615.89,536.29 C616.49,536.89 622.33,537.21 630.45,537.09 L 644.00 536.88 L 644.00 537.00 L 623.50 537.42 L 633.25 537.75 L 643.00 538.07 L 643.00 541.93 C643.00,544.66 642.49,546.00 641.25,546.52 C640.29,546.93 634.10,547.58 627.50,547.97 L 615.50 548.68 L 642.20 548.98 L 629.75 549.22 L 615.50 549.50 L 615.20 554.75 L 615.14 555.72 C614.64,549.65 614.33,549.55 613.08,553.95 C611.95,557.93 612.00,558.53 613.60,559.70 C614.58,560.41 615.42,561.00 615.47,561.00 C615.49,561.00 615.48,560.62 615.44,560.00 ZM 554.92 563.97 C554.79,557.58 555.14,554.43 556.12,553.18 C556.88,552.20 556.49,552.46 555.25,553.76 C553.40,555.69 553.00,557.24 553.00,562.43 C553.00,569.33 552.21,570.61 547.32,571.59 C545.24,572.00 543.82,571.68 542.66,570.52 C541.11,568.97 541.00,569.00 541.00,570.93 C541.00,572.77 541.55,572.99 547.46,573.00 L 539.92 573.00 L 540.08 542.96 L 540.21 516.77 C540.39,516.90 540.70,516.70 541.20,516.20 C541.86,515.54 544.33,515.00 546.69,515.00 C549.90,515.00 551.30,515.50 552.23,517.00 C553.83,519.57 554.00,519.52 554.00,516.50 C554.00,514.07 553.80,514.00 547.00,514.00 C542.45,514.00 540.76,514.15 540.22,514.88 L 540.23 512.92 L 547.37 513.21 L 554.50 513.50 L 554.63 524.80 C554.70,531.01 555.04,536.37 555.37,536.71 C556.21,537.54 560.08,533.94 559.45,532.92 C559.17,532.47 560.29,531.11 561.93,529.89 C563.58,528.68 564.72,527.36 564.47,526.96 C564.23,526.56 566.87,523.25 570.35,519.62 L 576.68 513.00 L 584.84 513.00 C589.33,513.00 593.00,513.34 592.99,513.75 C592.98,514.16 589.16,518.29 584.49,522.91 C579.82,527.54 576.00,531.79 576.00,532.36 C576.00,532.93 574.84,534.60 573.42,536.08 L 570.84 538.77 L 573.05 543.14 C574.27,545.54 575.88,547.86 576.63,548.30 C577.38,548.74 578.00,549.77 578.00,550.58 C578.00,551.40 578.64,552.31 579.42,552.61 C580.21,552.91 581.58,554.69 582.47,556.58 C583.36,558.46 584.52,560.00 585.05,560.00 C585.57,560.00 586.00,560.64 586.00,561.42 C586.00,562.20 586.34,562.98 586.77,563.17 C587.19,563.35 589.01,565.53 590.81,568.00 L 594.09 572.50 L 593.38 572.53 C593.61,572.23 593.18,571.75 592.48,570.98 C591.23,569.60 590.32,569.28 589.62,569.98 C589.06,570.54 585.74,571.00 582.24,571.00 C578.60,571.00 576.50,571.31 576.46,571.84 C576.26,571.71 576.08,571.57 575.90,571.41 C574.88,570.49 574.29,569.34 574.59,568.86 C574.88,568.38 574.42,567.72 573.56,567.39 C572.70,567.06 572.00,566.16 572.00,565.39 C572.00,564.63 571.55,564.00 571.00,564.00 C570.45,564.00 570.00,563.31 570.00,562.47 C570.00,561.63 569.33,560.68 568.51,560.36 C567.68,560.05 567.26,559.38 567.57,558.89 C567.88,558.39 567.43,557.72 566.57,557.39 C565.71,557.06 565.26,556.38 565.57,555.89 C565.88,555.39 565.43,554.72 564.57,554.39 C563.71,554.06 563.25,553.41 563.53,552.95 C563.82,552.48 563.21,551.65 562.17,551.09 C560.67,550.29 559.76,550.64 557.65,552.85 C555.20,555.40 555.00,556.26 555.00,564.30 L 555.00 567.99 ZM 493.21 540.23 C493.45,535.81 493.30,535.24 492.25,536.67 C490.90,538.52 490.53,547.19 491.75,548.43 C492.49,549.18 492.73,548.32 493.08,542.49 C492.99,548.88 495.65,555.88 499.93,558.70 C502.63,560.49 514.00,561.25 514.00,559.64 C514.00,559.17 514.70,559.06 515.56,559.39 C516.55,559.76 518.17,558.84 519.96,556.88 L 522.79 553.78 L 527.89 558.59 L 532.99 563.40 L 530.31 566.20 C528.83,567.74 527.02,569.00 526.27,569.00 C525.53,569.00 523.59,569.98 521.97,571.18 C521.15,571.78 519.98,572.29 518.57,572.69 C518.69,572.54 518.48,572.31 518.00,572.00 C516.03,570.73 513.00,570.73 513.00,572.00 C513.00,572.55 514.46,572.99 516.25,572.98 C516.80,572.98 517.25,572.97 517.60,572.94 C511.82,574.30 502.92,574.13 497.37,572.17 C491.72,570.18 483.66,564.35 484.56,562.91 C484.87,562.40 484.43,561.72 483.57,561.39 C482.71,561.06 482.26,560.39 482.56,559.90 C482.87,559.40 482.61,559.00 482.00,559.00 C481.39,559.00 481.16,558.55 481.50,558.00 C481.84,557.45 481.61,557.00 481.00,557.00 C480.39,557.00 480.16,556.55 480.50,556.00 C480.84,555.45 480.74,555.00 480.27,555.00 C479.80,555.00 479.31,551.51 479.17,547.25 C479.02,542.99 478.67,538.71 478.39,537.75 C478.10,536.79 478.35,536.00 478.93,536.00 C479.52,536.00 480.00,535.31 480.00,534.47 C480.00,532.24 484.52,524.01 487.73,520.37 C491.09,516.58 498.85,512.89 501.83,513.67 C503.10,514.00 504.00,513.77 504.00,513.12 C504.00,511.51 511.04,511.85 516.75,513.07 C516.49,513.04 516.24,513.03 516.00,513.03 C514.02,513.03 513.81,513.23 515.00,514.00 C515.83,514.53 517.62,514.97 519.00,514.97 C520.98,514.97 521.19,514.77 520.00,514.00 C519.90,513.93 519.78,513.87 519.65,513.80 C521.41,514.34 522.82,514.96 523.48,515.62 C524.28,516.42 525.17,517.06 525.46,517.04 C527.45,516.90 528.09,517.32 529.99,519.99 L 532.12 522.98 L 527.55 527.74 C523.56,531.89 522.81,532.30 521.74,530.94 C520.01,528.77 512.63,526.00 508.54,526.00 C501.81,526.00 497.46,529.00 494.45,535.72 C493.78,537.20 493.37,538.87 493.19,540.63 ZM 703.00 525.92 L 685.50 526.50 L 685.64 532.00 C685.68,533.28 685.66,535.91 685.62,539.25 C685.57,537.18 685.50,535.41 685.39,534.13 L 684.74 526.31 C684.35,528.70 683.99,537.56 683.90,547.76 C683.75,563.60 683.38,569.27 682.43,570.06 C681.72,570.64 679.20,570.98 676.82,570.81 L 672.50 570.50 L 672.50 548.83 C672.50,536.92 672.16,526.83 671.75,526.42 C671.34,526.00 671.00,536.32 671.00,549.33 L 671.00 526.00 L 653.03 526.00 L 653.07 524.70 C653.33,525.98 654.50,525.96 659.75,525.82 C666.04,525.64 666.14,525.61 661.27,525.26 C657.30,524.98 655.68,524.38 654.52,522.73 C653.78,521.66 653.40,521.12 653.20,521.16 L 653.26 519.51 L 653.50 513.02 L 703.00 513.00 L 703.00 525.92 ZM 428.86 570.53 C429.15,568.99 428.94,568.80 427.87,569.65 C425.70,571.36 418.24,572.20 417.39,570.82 C416.99,570.17 416.47,559.93 416.23,548.07 C416.00,536.21 415.63,526.31 415.40,526.08 C415.18,525.85 415.00,536.34 415.00,549.38 L 415.00 526.00 L 397.00 526.00 L 413.50 525.95 L 410.16 524.31 C407.31,522.90 406.31,522.85 403.29,523.94 C399.35,525.36 398.04,524.47 398.02,520.33 C398.01,520.24 398.01,520.15 398.01,520.06 C398.00,518.72 397.99,517.74 398.42,517.03 C399.60,515.07 404.10,515.10 420.97,515.04 L 422.51 515.03 C438.07,514.98 442.37,514.96 443.55,516.87 C444.01,517.60 444.00,518.62 444.00,520.02 C444.00,520.14 444.00,520.26 444.00,520.38 C444.00,523.99 442.26,524.88 436.40,524.28 C430.69,523.69 427.90,524.89 428.12,527.87 C428.21,529.25 428.30,529.23 428.69,527.75 C428.85,527.14 429.16,526.74 430.00,526.48 L 430.00 573.00 L 417.08 573.00 L 421.74 572.80 C427.52,572.54 428.53,572.22 428.86,570.53 ZM 204.13 405.27 C203.11,408.97 202.42,412.00 202.59,412.00 C202.77,412.00 205.75,410.20 209.21,408.01 C212.67,405.81 215.99,404.01 216.59,404.01 C217.20,404.00 220.51,405.82 223.96,408.05 C227.41,410.28 230.42,411.91 230.65,411.68 C230.89,411.45 230.15,407.94 229.01,403.88 L 226.95 396.50 L 229.03 395.00 C232.73,392.33 240.53,384.95 239.50,385.10 C238.95,385.17 235.00,385.18 230.72,385.12 C224.27,385.02 222.84,384.70 222.34,383.25 C222.01,382.29 220.58,378.44 219.16,374.69 L 216.58 367.88 L 213.43 376.19 L 210.28 384.50 L 202.68 385.05 C198.49,385.35 194.86,385.81 194.60,386.07 C194.33,386.33 196.79,388.69 200.06,391.30 C203.33,393.92 206.00,396.62 206.00,397.30 C206.00,397.98 205.16,401.57 204.13,405.27 ZM 469.00 562.83 C469.00,551.08 468.06,549.91 467.84,561.39 C467.68,569.70 466.28,572.00 461.35,572.00 C456.31,572.00 456.16,571.12 456.34,541.51 C456.43,526.38 456.16,514.00 455.75,514.00 C455.34,514.00 455.01,526.98 455.00,542.96 L 455.00 512.91 L 469.50 513.50 L 469.83 522.00 C470.01,526.67 469.85,540.06 469.47,551.75 L 469.00 566.18 ZM 225.32 591.61 C225.69,590.64 225.28,590.38 223.94,590.73 C222.88,591.00 222.27,591.63 222.57,592.11 C222.64,592.22 222.71,592.32 222.78,592.40 L 221.51 591.79 L 226.25 589.37 C228.86,588.05 231.00,586.32 231.00,585.55 C231.00,584.77 231.47,582.91 232.03,581.41 L 233.07 578.69 L 236.04 581.54 C238.43,583.83 239.80,584.34 243.01,584.15 C247.40,583.90 247.92,584.88 245.83,589.48 C244.88,591.57 244.97,592.71 246.33,595.56 C247.25,597.49 248.00,599.34 248.00,599.67 C248.00,599.99 246.09,600.00 243.75,599.69 C239.98,599.18 239.14,599.46 236.36,602.14 C232.94,605.45 232.51,605.25 231.51,599.90 C230.94,596.88 230.10,595.96 226.17,594.05 L 223.92 592.96 C224.47,592.91 225.00,592.45 225.32,591.61 ZM 181.75 619.94 C177.77,619.19 177.27,619.37 173.86,622.67 L 173.00 623.50 L 174.88 621.50 L 172.44 621.50 C170.58,621.50 170.00,622.03 170.00,623.75 C170.00,624.29 170.03,624.78 170.07,625.17 L 169.52 621.15 C168.88,616.52 168.54,616.00 165.41,614.97 C163.54,614.35 162.00,613.46 162.00,612.99 C162.00,611.72 164.75,609.21 166.90,608.53 C168.91,607.89 169.96,605.23 169.99,600.75 C169.99,599.24 170.24,598.00 170.53,598.00 C170.82,598.00 172.42,599.55 174.09,601.45 C176.97,604.73 177.35,604.86 182.13,604.30 L 187.14 603.70 L 184.60 607.45 L 182.06 611.19 L 184.03 615.06 C184.69,616.36 185.19,617.37 185.49,618.15 C185.04,617.21 184.54,617.27 183.00,618.23 C180.97,619.49 180.97,619.50 183.23,620.09 C183.55,620.17 183.84,620.24 184.10,620.30 C183.49,620.25 182.71,620.12 181.75,619.94 ZM 203.60 613.83 C204.64,612.63 204.89,612.02 204.14,612.46 C203.31,612.94 202.43,612.71 201.90,611.88 C201.28,610.90 201.03,611.29 201.02,613.25 C201.00,615.27 201.06,616.08 201.66,615.76 L 201.00 616.41 L 200.99 613.45 C200.96,608.12 199.92,606.27 195.91,604.46 C194.94,604.02 194.16,603.62 193.56,603.26 C193.62,603.28 193.69,603.29 193.75,603.31 C194.71,603.56 195.67,603.82 195.87,603.88 C196.08,603.95 195.74,603.40 195.13,602.66 C194.52,601.92 194.34,601.00 194.73,600.61 C194.83,600.50 194.87,600.43 194.87,600.38 C194.91,600.37 194.96,600.36 195.00,600.35 C196.65,600.02 198.00,599.36 198.00,598.88 C198.00,598.39 198.60,598.00 199.33,598.00 C200.07,598.00 200.71,597.44 200.77,596.75 C200.83,596.06 201.10,594.15 201.37,592.50 C201.64,590.85 201.89,589.30 201.93,589.06 C201.97,588.82 203.38,589.95 205.07,591.56 C207.33,593.73 209.11,594.50 211.82,594.50 C213.84,594.50 215.81,594.06 216.20,593.53 C216.58,592.99 217.16,592.83 217.50,593.17 C217.83,593.50 217.19,595.29 216.06,597.14 C213.65,601.08 213.50,603.76 215.53,606.44 C217.91,609.58 217.29,610.30 212.75,609.69 C208.86,609.16 208.18,609.42 204.75,612.76 L 203.27 614.20 C203.37,614.08 203.48,613.96 203.60,613.83 ZM 267.50 502.45 C265.85,501.11 263.57,500.01 262.44,500.00 C261.31,500.00 259.51,499.33 258.44,498.50 C256.52,497.02 256.52,496.98 258.50,495.39 C259.60,494.51 262.08,493.11 264.00,492.28 C265.92,491.45 267.75,490.37 268.07,489.88 C269.08,488.27 275.00,491.02 275.00,493.10 C275.00,494.14 274.55,495.00 274.00,495.00 C273.45,495.00 273.00,496.49 273.00,498.31 C273.00,500.13 272.44,502.35 271.75,503.26 C270.61,504.75 270.23,504.67 267.50,502.45 ZM 603.38 520.83 C603.81,519.91 603.66,518.24 603.06,517.11 C601.99,515.11 602.23,515.06 613.23,514.75 L 624.50 514.43 L 601.00 514.00 L 601.38 568.50 L 602.00 545.50 C602.34,532.85 602.96,521.75 603.38,520.83 ZM 251.02 494.76 C250.98,489.30 257.90,484.76 260.85,488.31 C261.68,489.32 260.90,490.49 257.47,493.36 C255.01,495.42 252.99,496.51 252.98,495.80 C252.97,494.87 252.70,494.92 252.00,496.00 C251.24,497.17 251.03,496.90 251.02,494.76 ZM 703.00 520.00 C703.00,515.79 702.62,514.00 701.72,514.00 C700.82,514.00 700.50,515.53 700.66,519.23 C700.79,522.40 700.41,524.76 699.69,525.21 C698.95,525.68 699.35,525.98 700.75,525.98 C702.84,526.00 703.00,525.56 703.00,520.00 ZM 503.50 572.00 C503.16,571.45 501.54,571.00 499.89,571.00 C496.77,571.00 491.91,568.92 488.52,566.13 C486.63,564.58 486.60,564.59 488.02,566.41 C490.87,570.08 505.60,575.40 503.50,572.00 ZM 158.56 515.36 C159.26,516.38 160.01,516.80 160.45,516.07 C160.82,515.48 161.94,515.00 162.93,515.00 C164.45,515.00 165.27,513.60 165.68,509.15 C165.35,515.30 164.90,515.59 163.25,515.82 C161.62,516.05 161.00,516.81 161.00,518.57 C161.00,519.91 160.55,521.00 160.00,521.00 C159.45,521.00 159.00,519.74 159.00,518.20 C159.00,517.20 158.82,516.13 158.56,515.36 ZM 174.26 471.84 C171.46,471.21 169.43,471.24 168.26,471.91 C166.92,472.69 167.95,472.92 172.50,472.86 L 178.50 472.79 ZM 497.00 516.00 C497.00,514.75 495.94,514.75 494.00,516.00 C492.79,516.78 492.93,516.97 494.75,516.98 C495.99,516.99 497.00,516.55 497.00,516.00 ZM 684.80 526.00 L 693.50 525.66 L 689.62 525.26 C687.48,525.04 685.37,525.23 684.91,525.69 C684.87,525.73 684.84,525.83 684.80,526.00 ZM 166.01 500.73 C166.02,499.76 166.03,498.72 166.03,497.62 C166.06,487.56 166.91,485.55 167.83,491.15 C167.04,486.48 166.40,489.68 166.01,500.73 ZM 148.61 508.64 C148.95,512.36 149.40,515.28 149.84,515.88 C149.32,515.93 148.95,515.06 148.86,513.25 C148.83,512.58 148.74,510.89 148.61,508.64 ZM 182.17 520.61 C181.89,515.36 181.60,515.17 179.00,514.65 C181.70,515.19 181.97,515.31 182.17,520.61 ZM 347.32 394.97 C346.91,394.13 346.41,393.35 345.81,392.62 C346.09,392.88 346.30,393.11 346.45,393.32 C346.80,393.79 347.08,394.22 347.32,394.97 ZM 156.83 510.50 C156.63,508.71 156.11,507.76 155.44,507.60 C156.11,507.75 156.63,508.68 156.84,510.45 C156.99,511.84 157.42,513.20 157.94,514.28 C157.47,513.61 156.99,512.00 156.83,510.50 ZM 578.11 572.53 C578.89,572.66 579.90,572.77 581.06,572.85 C579.82,572.81 578.87,572.70 578.11,572.53 ZM 684.83 569.94 L 684.74 573.00 L 684.70 573.00 ZM 232.12 492.81 C232.18,505.34 232.42,514.97 232.65,514.85 C232.42,514.98 232.18,505.47 232.12,493.08 C232.11,492.37 232.11,491.69 232.11,491.03 C232.11,491.61 232.11,492.20 232.12,492.81 ZM 170.11 625.42 C170.17,625.78 170.24,626.00 170.33,626.00 C170.36,626.00 170.43,625.96 170.54,625.89 L 170.21 626.20 ZM 284.32 508.63 C284.37,509.25 284.42,509.79 284.46,510.25 L 284.61 511.90 L 284.59 511.75 C284.53,511.37 284.44,510.28 284.32,508.63 ZM 168.12 493.14 C168.32,494.75 168.53,496.75 168.72,499.11 L 169.50 508.50 L 168.80 500.00 C168.56,497.16 168.33,494.88 168.12,493.14 ZM 192.69 601.09 C192.48,601.24 192.32,601.41 192.21,601.57 C192.28,601.40 192.44,601.24 192.69,601.09 ZM 151.46 513.81 C151.73,513.20 152.00,512.49 152.25,511.75 C151.98,512.55 151.72,513.23 151.46,513.81 ZM 301.57 514.99 C301.72,514.99 301.88,515.00 302.04,515.00 C301.88,515.00 301.72,515.00 301.57,514.99 Z" fill="rgb(213,20,18)"/>
<path d="M 0.00 512.00 L 0.00 0.00 L 512.00 0.00 L 1024.00 0.00 L 1024.00 512.00 L 1024.00 1024.00 L 512.00 1024.00 L 0.00 1024.00 L 0.00 512.00 ZM 237.04 667.69 C255.81,658.75 271.37,650.10 282.56,642.35 C291.65,636.06 301.02,628.69 300.55,628.21 C300.34,628.01 297.09,628.73 293.33,629.83 C238.76,645.75 199.83,657.39 191.64,660.26 L 187.78 661.61 L 199.14 668.18 C210.72,674.89 212.57,675.68 217.04,675.88 C218.44,675.95 227.44,672.26 237.04,667.69 ZM 175.45 659.92 C239.97,638.97 291.59,621.88 294.00,620.68 C295.38,619.99 297.07,618.25 297.76,616.81 C298.85,614.53 298.63,613.21 295.99,606.35 C292.00,595.97 291.97,595.94 286.89,595.28 C276.96,594.01 270.47,587.73 269.35,578.32 C268.68,572.65 271.26,565.43 275.56,560.94 L 278.01 558.38 L 274.57 549.61 C270.03,538.04 268.62,536.00 265.17,536.00 C263.64,536.00 257.69,537.58 251.95,539.51 C239.93,543.55 216.63,551.19 186.50,560.97 C174.95,564.72 158.07,570.19 149.00,573.14 C139.93,576.09 132.35,578.84 132.16,579.26 C131.98,579.67 131.47,579.79 131.04,579.52 C130.19,579.00 117.58,583.05 112.23,585.57 C110.43,586.42 109.19,587.50 109.48,587.97 C109.77,588.44 109.49,589.00 108.86,589.21 C107.63,589.62 111.08,600.18 113.32,602.89 C113.97,603.67 114.35,604.47 114.17,604.67 C113.44,605.49 115.24,611.00 116.25,611.00 C116.84,611.00 117.05,611.28 116.71,611.62 C115.20,613.14 119.21,615.00 123.99,615.00 C129.63,615.00 131.98,615.93 136.50,619.97 C139.77,622.89 139.88,623.15 141.12,630.50 C141.65,633.67 141.60,635.62 140.97,635.84 C140.43,636.02 140.24,636.58 140.55,637.09 C140.86,637.59 140.57,638.00 139.89,638.00 C139.22,638.00 138.93,638.27 139.26,638.59 C139.59,638.92 138.20,640.61 136.18,642.34 C134.15,644.08 132.35,645.84 132.17,646.25 C131.98,646.66 131.26,647.00 130.56,647.00 C129.73,647.00 129.45,647.89 129.76,649.50 C130.02,650.88 130.63,652.00 131.12,652.00 C131.60,652.00 132.00,652.83 132.00,653.84 C132.00,656.27 135.68,666.91 137.12,668.64 C137.74,669.39 139.63,670.00 141.32,670.00 C143.02,670.00 158.37,665.46 175.45,659.92 ZM 325.62 602.00 C333.95,590.73 341.33,577.20 345.12,566.27 L 348.50 556.50 L 348.50 476.32 C348.50,397.13 348.47,396.11 346.45,393.32 C344.75,390.98 334.76,384.96 333.01,385.24 C332.44,385.33 330.02,384.44 325.50,382.49 C323.85,381.78 318.67,379.86 314.00,378.22 C300.42,373.47 238.32,351.45 229.00,348.08 C224.08,346.30 218.52,345.01 215.80,345.00 C211.39,345.00 179.66,355.22 118.00,376.51 C93.78,384.88 82.84,390.32 84.59,393.15 C84.88,393.62 84.57,394.00 83.89,394.00 C83.22,394.00 82.96,394.30 83.32,394.66 C83.69,395.02 83.52,395.87 82.96,396.55 C82.28,397.37 82.04,423.53 82.24,475.14 L 82.54 552.50 L 84.89 559.50 C87.93,568.60 91.06,574.71 97.64,584.38 C101.99,590.77 103.00,591.77 103.00,589.70 C103.00,585.31 107.35,581.41 115.27,578.68 C119.25,577.32 138.48,570.72 158.00,564.02 C177.52,557.32 200.70,549.37 209.50,546.35 C265.90,526.98 267.43,526.55 272.06,529.03 C273.12,529.60 274.84,531.74 275.88,533.78 C277.94,537.83 286.00,558.85 286.00,560.18 C286.00,560.63 284.49,562.68 282.64,564.75 C278.28,569.63 277.00,572.17 277.00,575.98 C277.00,583.20 282.06,587.99 289.71,588.02 C292.35,588.02 295.05,588.38 295.72,588.81 C296.39,589.23 299.48,595.17 302.58,602.00 C307.48,612.80 308.15,615.00 307.72,618.95 L 307.22 623.50 L 313.65 616.51 C317.18,612.66 322.57,606.13 325.62,602.00 ZM 521.97 571.18 C523.59,569.98 525.53,569.00 526.27,569.00 C527.02,569.00 528.83,567.74 530.31,566.20 L 532.99 563.40 L 527.89 558.59 L 522.79 553.78 L 519.96 556.88 C518.17,558.84 516.55,559.76 515.56,559.39 C514.70,559.06 514.00,559.17 514.00,559.64 C514.00,561.25 502.63,560.49 499.93,558.70 C494.03,554.80 491.20,542.95 494.45,535.72 C497.46,529.00 501.81,526.00 508.54,526.00 C512.63,526.00 520.01,528.77 521.74,530.94 C522.81,532.30 523.56,531.89 527.55,527.74 L 532.12 522.98 L 529.99 519.99 C528.09,517.32 527.45,516.90 525.46,517.04 C525.17,517.06 524.28,516.42 523.48,515.62 C520.64,512.78 504.00,510.64 504.00,513.12 C504.00,513.77 503.10,514.00 501.83,513.67 C498.85,512.89 491.09,516.58 487.73,520.37 C484.52,524.01 480.00,532.24 480.00,534.47 C480.00,535.31 479.52,536.00 478.93,536.00 C478.35,536.00 478.10,536.79 478.39,537.75 C478.67,538.71 479.02,542.99 479.17,547.25 C479.31,551.51 479.80,555.00 480.27,555.00 C480.74,555.00 480.84,555.45 480.50,556.00 C480.16,556.55 480.39,557.00 481.00,557.00 C481.61,557.00 481.84,557.45 481.50,558.00 C481.16,558.55 481.39,559.00 482.00,559.00 C482.61,559.00 482.87,559.40 482.56,559.90 C482.26,560.39 482.71,561.06 483.57,561.39 C484.43,561.72 484.87,562.40 484.56,562.91 C483.66,564.35 491.72,570.18 497.37,572.17 C504.70,574.75 517.85,574.22 521.97,571.18 ZM 430.00 549.50 L 430.00 526.00 L 439.00 526.00 L 448.00 526.00 L 448.00 520.00 L 448.00 514.00 L 422.50 514.00 L 397.00 514.00 L 397.00 520.00 L 397.00 526.00 L 406.00 526.00 L 415.00 526.00 L 415.00 549.50 L 415.00 573.00 L 422.50 573.00 L 430.00 573.00 L 430.00 549.50 ZM 469.47 551.75 C469.85,540.06 470.01,526.67 469.83,522.00 L 469.50 513.50 L 462.25 513.21 L 455.00 512.91 L 455.00 542.96 L 455.00 573.00 L 461.89 573.00 L 468.78 573.00 L 469.47 551.75 ZM 555.00 564.30 C555.00,556.26 555.20,555.40 557.65,552.85 C559.76,550.64 560.67,550.29 562.17,551.09 C563.21,551.65 563.82,552.48 563.53,552.95 C563.25,553.41 563.71,554.06 564.57,554.39 C565.43,554.72 565.88,555.39 565.57,555.89 C565.26,556.38 565.71,557.06 566.57,557.39 C567.43,557.72 567.88,558.39 567.57,558.89 C567.26,559.38 567.68,560.05 568.51,560.36 C569.33,560.68 570.00,561.63 570.00,562.47 C570.00,563.31 570.45,564.00 571.00,564.00 C571.55,564.00 572.00,564.63 572.00,565.39 C572.00,566.16 572.70,567.06 573.56,567.39 C574.42,567.72 574.88,568.38 574.59,568.86 C574.29,569.34 574.88,570.49 575.90,571.41 C577.38,572.75 579.39,573.03 585.92,572.79 L 594.09 572.50 L 590.81 568.00 C589.01,565.53 587.19,563.35 586.77,563.17 C586.34,562.98 586.00,562.20 586.00,561.42 C586.00,560.64 585.57,560.00 585.05,560.00 C584.52,560.00 583.36,558.46 582.47,556.58 C581.58,554.69 580.21,552.91 579.42,552.61 C578.64,552.31 578.00,551.40 578.00,550.58 C578.00,549.77 577.38,548.74 576.63,548.30 C575.88,547.86 574.27,545.54 573.05,543.14 L 570.84 538.77 L 573.42 536.08 C574.84,534.60 576.00,532.93 576.00,532.36 C576.00,531.79 579.82,527.54 584.49,522.91 C589.16,518.29 592.98,514.16 592.99,513.75 C593.00,513.34 589.33,513.00 584.84,513.00 L 576.68 513.00 L 570.35 519.62 C566.87,523.25 564.23,526.56 564.47,526.96 C564.72,527.36 563.58,528.68 561.93,529.89 C560.29,531.11 559.17,532.47 559.45,532.92 C560.08,533.94 556.21,537.54 555.37,536.71 C555.04,536.37 554.70,531.01 554.63,524.80 L 554.50 513.50 L 547.37 513.21 L 540.23 512.92 L 540.08 542.96 L 539.92 573.00 L 547.46 573.00 L 555.00 573.00 L 555.00 564.30 ZM 647.00 566.50 L 647.00 560.00 L 630.95 560.00 L 614.90 560.00 L 615.20 554.75 L 615.50 549.50 L 629.75 549.22 L 644.00 548.95 L 644.00 542.91 L 644.00 536.88 L 630.45 537.09 C622.33,537.21 616.49,536.89 615.89,536.29 C615.33,535.73 615.01,533.30 615.19,530.89 L 615.50 526.50 L 631.30 526.22 L 647.09 525.95 L 646.80 519.72 L 646.50 513.50 L 623.25 513.23 L 600.00 512.96 L 600.00 542.98 L 600.00 573.00 L 623.50 573.00 L 647.00 573.00 L 647.00 566.50 ZM 685.26 555.25 C685.55,545.49 685.72,535.03 685.64,532.00 L 685.50 526.50 L 694.25 526.21 L 703.00 525.92 L 703.00 519.46 L 703.00 513.00 L 678.25 513.01 L 653.50 513.02 L 653.26 519.51 L 653.03 526.00 L 662.01 526.00 L 671.00 526.00 L 671.00 549.50 L 671.00 573.00 L 677.87 573.00 L 684.74 573.00 L 685.26 555.25 ZM 487.97 485.02 C494.06,481.91 500.47,475.64 503.11,470.20 C504.96,466.41 505.40,463.77 505.45,456.50 C505.49,448.60 505.17,446.88 502.80,442.38 C499.43,436.00 492.34,429.64 486.27,427.58 C480.30,425.54 468.66,425.56 462.64,427.61 C456.16,429.81 447.85,437.62 444.95,444.23 C438.72,458.41 444.67,476.15 458.11,483.47 C461.01,485.04 464.75,486.69 466.44,487.13 C471.76,488.51 483.34,487.38 487.97,485.02 ZM 547.66 485.17 C554.44,481.71 558.00,475.86 558.00,468.20 C558.00,459.09 551.03,452.95 536.72,449.43 C532.99,448.52 528.95,446.97 527.75,446.00 C525.89,444.49 525.73,443.88 526.70,441.76 C528.72,437.34 538.30,437.55 545.79,442.18 C547.64,443.32 549.48,443.86 549.90,443.38 C550.31,442.89 552.06,440.65 553.80,438.38 C556.76,434.53 556.85,434.17 555.23,432.75 C548.80,427.10 534.62,424.40 525.04,426.99 C516.40,429.32 509.98,439.03 511.55,447.40 C513.09,455.63 518.16,459.60 531.34,462.90 C535.32,463.89 539.58,465.24 540.79,465.89 C543.68,467.44 543.67,471.41 540.78,473.44 C537.18,475.96 531.89,475.33 524.37,471.49 L 517.50 467.98 L 513.28 472.68 C509.93,476.41 509.30,477.66 510.22,478.77 C511.80,480.67 522.17,485.82 526.75,486.98 C532.32,488.38 543.21,487.44 547.66,485.17 ZM 639.46 484.58 C642.02,483.07 644.98,480.43 646.03,478.70 C648.61,474.46 649.51,467.65 648.11,462.97 C646.16,456.47 642.43,454.18 625.00,448.81 C618.40,446.78 617.46,446.19 617.20,443.91 C617.03,442.48 617.59,440.76 618.44,440.05 C621.10,437.84 629.09,438.51 634.83,441.41 L 640.05 444.06 L 642.47 441.28 C647.17,435.88 647.59,434.30 644.90,432.06 C643.58,430.95 640.03,429.09 637.00,427.93 C629.40,425.00 617.39,425.52 611.03,429.06 C604.92,432.46 601.69,438.61 602.26,445.79 C602.97,454.90 607.98,459.17 622.49,463.05 C626.89,464.23 631.29,465.90 632.25,466.75 C634.73,468.96 634.42,471.68 631.48,473.60 C627.96,475.91 621.28,474.97 614.01,471.16 L 608.16 468.10 L 604.01 472.61 C599.37,477.63 599.49,478.29 605.70,482.12 C616.15,488.58 630.81,489.65 639.46,484.58 ZM 875.54 484.65 C887.73,478.81 893.47,469.80 893.46,456.50 C893.45,449.32 893.10,447.85 890.06,442.20 C884.31,431.51 876.69,426.84 864.00,426.22 C857.09,425.89 854.45,426.20 849.92,427.91 C842.42,430.74 836.71,435.86 833.32,442.77 C830.97,447.59 830.52,449.77 830.51,456.56 C830.50,463.58 830.89,465.40 833.50,470.47 C839.02,481.20 850.12,487.89 862.53,487.96 C867.35,487.99 869.95,487.33 875.54,484.65 ZM 930.50 486.90 C945.52,482.79 950.18,463.34 938.07,455.25 C936.19,453.99 930.40,451.63 925.21,450.01 C915.41,446.95 913.00,445.65 913.00,443.45 C913.00,438.41 923.58,437.34 931.54,441.57 L 936.38 444.15 L 938.22 441.82 C939.23,440.55 940.96,438.28 942.07,436.79 L 944.08 434.08 L 940.29 431.58 C932.24,426.27 920.91,424.51 911.52,427.12 C903.47,429.35 896.92,439.49 898.42,447.41 C899.93,455.41 905.15,459.54 917.63,462.61 C927.21,464.96 930.00,466.52 930.00,469.50 C930.00,475.80 920.38,476.52 910.18,471.00 L 904.63 467.99 L 902.22 470.25 C900.89,471.49 898.94,473.71 897.88,475.18 L 895.96 477.87 L 899.61 480.65 C907.41,486.60 921.30,489.41 930.50,486.90 ZM 439.80 480.59 C440.01,476.54 439.70,474.43 438.80,473.86 C438.09,473.40 431.99,473.02 425.25,473.02 L 413.00 473.00 L 413.00 450.00 L 413.00 427.00 L 405.50 427.00 L 398.00 427.00 L 398.00 456.33 C398.00,472.47 398.31,485.98 398.69,486.35 C399.06,486.73 408.40,486.92 419.44,486.77 L 439.50 486.50 L 439.80 480.59 ZM 666.63 481.50 L 669.15 476.00 L 680.88 476.00 L 692.62 476.00 L 695.06 481.25 L 697.50 486.50 L 704.87 486.80 L 712.24 487.09 L 711.60 484.54 C711.25,483.14 705.95,469.62 699.82,454.50 L 688.68 427.00 L 681.09 427.02 L 673.50 427.04 L 661.40 456.27 C654.74,472.35 649.48,485.84 649.70,486.25 C649.93,486.66 653.27,487.00 657.11,487.00 L 664.11 487.00 L 666.63 481.50 ZM 732.00 469.51 L 732.50 452.52 L 742.00 465.01 C747.23,471.88 752.83,479.30 754.45,481.50 C758.38,486.84 758.62,486.97 765.25,486.98 L 771.00 487.00 L 771.00 457.00 L 771.00 427.00 L 764.02 427.00 L 757.05 427.00 L 756.77 443.75 L 756.50 460.50 L 744.03 443.75 L 731.56 427.00 L 724.28 427.00 L 717.00 427.00 L 717.00 456.33 C717.00,472.47 717.32,485.99 717.71,486.37 C718.10,486.76 721.36,486.95 724.96,486.79 L 731.50 486.50 L 732.00 469.51 ZM 811.00 463.50 L 811.00 440.00 L 820.00 440.00 L 829.00 440.00 L 829.00 433.50 L 829.00 427.00 L 803.50 427.00 L 778.00 427.00 L 778.00 433.50 L 778.00 440.00 L 787.00 440.00 L 796.00 440.00 L 796.00 462.83 C796.00,475.39 796.30,485.97 796.67,486.33 C797.03,486.70 800.41,487.00 804.17,487.00 L 811.00 487.00 L 811.00 463.50 ZM 594.00 460.00 L 594.00 454.00 L 579.50 454.00 L 565.00 454.00 L 565.00 459.33 C565.00,462.27 565.30,464.97 565.67,465.33 C566.03,465.70 572.56,466.00 580.17,466.00 L 594.00 466.00 L 594.00 460.00 ZM 969.80 458.75 L 970.11 454.00 L 959.55 454.00 L 949.00 454.00 L 949.00 458.33 C949.00,460.72 949.32,462.98 949.70,463.37 C950.09,463.75 954.70,463.94 959.95,463.78 L 969.50 463.50 L 969.80 458.75 ZM 160.83 643.96 C159.91,643.43 158.86,641.53 158.51,639.74 C157.47,634.55 152.02,618.38 147.85,608.13 C143.50,597.45 143.29,595.96 145.75,593.73 C146.71,592.86 166.18,586.00 189.00,578.48 C211.82,570.96 233.56,563.72 237.31,562.40 C247.99,558.63 250.93,559.18 252.37,565.21 C252.73,566.69 253.53,569.17 254.16,570.71 C254.79,572.24 255.43,574.10 255.58,574.83 C255.72,575.56 256.17,576.91 256.57,577.83 C256.97,578.75 257.47,580.38 257.68,581.46 C257.88,582.53 258.46,583.67 258.97,583.98 C259.48,584.30 260.15,586.01 260.46,587.78 C260.77,589.56 262.22,593.60 263.67,596.76 C265.12,599.92 266.24,602.84 266.16,603.25 C266.07,603.66 266.46,604.00 267.02,604.00 C268.18,604.00 267.27,608.81 265.73,610.76 C264.85,611.87 165.64,645.04 163.40,644.97 C162.91,644.95 161.75,644.50 160.83,643.96 ZM 181.75 619.94 C186.60,620.84 186.78,620.46 184.03,615.06 L 182.06 611.19 L 184.60 607.45 L 187.14 603.70 L 182.13 604.30 C177.35,604.86 176.97,604.73 174.09,601.45 C172.42,599.55 170.82,598.00 170.53,598.00 C170.24,598.00 169.99,599.24 169.99,600.75 C169.96,605.23 168.91,607.89 166.90,608.53 C164.75,609.21 162.00,611.72 162.00,612.99 C162.00,613.46 163.54,614.35 165.41,614.97 C168.54,616.00 168.88,616.52 169.52,621.15 L 170.21 626.20 L 173.86 622.67 C177.27,619.37 177.77,619.19 181.75,619.94 ZM 212.75 609.69 C217.29,610.30 217.91,609.58 215.53,606.44 C213.50,603.76 213.65,601.08 216.06,597.14 C217.19,595.29 217.83,593.50 217.50,593.17 C217.16,592.83 216.58,592.99 216.20,593.53 C215.81,594.06 213.84,594.50 211.82,594.50 C209.11,594.50 207.33,593.73 205.07,591.56 C203.38,589.95 201.97,588.82 201.93,589.06 C201.89,589.30 201.64,590.85 201.37,592.50 C201.10,594.15 200.83,596.06 200.77,596.75 C200.71,597.44 200.07,598.00 199.33,598.00 C198.60,598.00 198.00,598.39 198.00,598.88 C198.00,599.36 196.65,600.02 195.00,600.35 C190.96,601.16 191.22,602.35 195.91,604.46 C199.92,606.27 200.96,608.12 200.99,613.45 L 201.00 616.41 L 204.75 612.76 C208.18,609.42 208.86,609.16 212.75,609.69 ZM 243.75 599.69 C246.09,600.00 248.00,599.99 248.00,599.67 C248.00,599.34 247.25,597.49 246.33,595.56 C244.97,592.71 244.88,591.57 245.83,589.48 C247.92,584.88 247.40,583.90 243.01,584.15 C239.80,584.34 238.43,583.83 236.04,581.54 L 233.07 578.69 L 232.03 581.41 C231.47,582.91 231.00,584.77 231.00,585.55 C231.00,586.32 228.86,588.05 226.25,589.37 L 221.51 591.79 L 226.17 594.05 C230.10,595.96 230.94,596.88 231.51,599.90 C232.51,605.25 232.94,605.45 236.36,602.14 C239.14,599.46 239.98,599.18 243.75,599.69 ZM 330.63 542.75 C329.82,539.73 329.83,490.91 330.64,483.15 C331.17,478.05 331.60,477.00 333.14,477.00 C334.92,477.00 335.00,478.54 335.00,511.00 C335.00,543.63 334.92,545.00 333.12,545.00 C332.01,545.00 330.98,544.07 330.63,542.75 ZM 99.57 539.81 C98.27,535.73 97.70,530.01 97.32,517.25 L 96.90 503.00 L 100.45 503.00 L 104.00 503.00 L 104.00 517.00 C104.00,525.67 103.62,531.00 103.00,531.00 C102.45,531.00 102.00,533.00 102.00,535.44 C102.00,539.71 100.43,542.53 99.57,539.81 ZM 182.23 522.38 C182.00,515.33 181.97,515.24 179.00,514.65 C176.64,514.18 176.00,513.52 176.00,511.59 C176.00,509.54 175.45,509.07 172.75,508.81 L 169.50 508.50 L 168.72 499.11 C167.56,485.09 166.07,484.26 166.03,497.62 C165.99,511.43 165.36,515.00 162.93,515.00 C161.94,515.00 160.82,515.48 160.45,516.07 C159.51,517.60 157.25,514.08 156.84,510.45 C156.34,506.12 153.90,506.81 152.25,511.75 C151.47,514.09 150.46,516.00 150.01,516.00 C148.94,516.00 147.75,501.30 148.17,493.50 L 148.50 487.50 L 154.57 486.92 C157.91,486.60 161.18,486.01 161.82,485.61 C162.47,485.21 163.00,482.65 163.00,479.92 C163.00,475.51 163.29,474.84 165.57,473.98 C169.85,472.35 178.51,472.78 180.92,474.75 C183.02,476.47 183.05,476.97 182.76,503.00 C182.60,517.58 182.36,526.29 182.23,522.38 ZM 191.07 481.86 L 191.00 434.22 L 197.52 432.46 C204.43,430.59 209.42,431.21 214.75,434.61 L 217.00 436.05 L 217.00 473.64 L 217.00 511.24 L 211.45 506.50 C205.33,501.27 205.27,501.28 201.45,508.25 C200.26,510.43 199.23,511.00 196.47,511.00 L 193.00 511.00 L 192.93 518.25 C192.89,522.24 192.47,526.40 192.00,527.50 C191.50,528.66 191.11,509.38 191.07,481.86 ZM 126.00 518.56 L 126.00 513.12 L 122.25 512.81 L 118.50 512.50 L 118.23 493.25 L 117.96 474.00 L 125.48 474.00 L 133.00 474.00 L 133.00 499.00 L 133.00 524.00 L 129.50 524.00 L 126.00 524.00 L 126.00 518.56 ZM 232.12 492.81 C231.98,464.72 231.41,466.00 244.03,466.00 C254.73,466.00 255.15,466.46 254.79,477.52 C254.52,485.97 254.37,486.52 252.25,486.82 C250.11,487.12 249.99,487.61 249.81,496.82 C249.71,502.14 249.60,507.85 249.56,509.50 L 249.50 512.50 L 241.32 512.79 C234.59,513.03 233.05,513.38 232.68,514.79 C232.43,515.73 232.18,505.84 232.12,492.81 ZM 275.78 501.25 L 275.50 487.50 L 268.67 487.20 L 261.84 486.90 L 262.43 464.20 C262.75,451.72 263.27,434.41 263.58,425.75 L 264.14 410.00 L 269.99 410.00 L 275.84 410.00 L 276.48 417.25 C276.84,421.24 277.18,427.73 277.24,431.68 C277.33,437.39 277.68,438.95 278.97,439.28 C280.38,439.65 280.82,444.18 282.34,474.10 C283.30,493.02 284.32,509.96 284.59,511.75 L 285.09 515.00 L 280.57 515.00 L 276.06 515.00 L 275.78 501.25 ZM 298.67 514.33 C298.30,513.97 298.00,501.82 298.00,487.33 L 298.00 461.00 L 307.50 461.00 L 317.00 461.00 L 317.00 469.00 L 317.00 477.00 L 311.00 477.00 L 305.00 477.00 L 305.00 496.00 L 305.00 515.00 L 302.17 515.00 C300.61,515.00 299.03,514.70 298.67,514.33 ZM 204.13 405.27 C205.16,401.57 206.00,397.98 206.00,397.30 C206.00,396.62 203.33,393.92 200.06,391.30 C196.79,388.69 194.33,386.33 194.60,386.07 C194.86,385.81 198.49,385.35 202.68,385.05 L 210.28 384.50 L 213.43 376.19 L 216.58 367.88 L 219.16 374.69 C220.58,378.44 222.01,382.29 222.34,383.25 C222.84,384.70 224.27,385.02 230.72,385.12 C235.00,385.18 238.95,385.17 239.50,385.10 C240.53,384.95 232.73,392.33 229.03,395.00 L 226.95 396.50 L 229.01 403.88 C230.15,407.94 230.89,411.45 230.65,411.68 C230.42,411.91 227.41,410.28 223.96,408.05 C220.51,405.82 217.20,404.00 216.59,404.01 C215.99,404.01 212.67,405.81 209.21,408.01 C205.75,410.20 202.77,412.00 202.59,412.00 C202.42,412.00 203.11,408.97 204.13,405.27 ZM 466.59 471.79 C460.47,468.20 458.61,464.96 458.23,457.22 C457.96,451.79 458.29,449.87 459.94,447.24 C466.71,436.44 483.15,436.85 488.75,447.96 C494.67,459.71 487.97,472.85 475.59,473.72 C471.64,474.00 469.63,473.57 466.59,471.79 ZM 855.45 472.59 C851.46,470.86 847.34,465.88 845.90,461.05 C843.54,453.20 847.38,445.05 855.26,441.14 C861.95,437.82 867.98,438.75 873.11,443.88 C881.48,452.24 880.09,464.98 870.08,471.73 C866.23,474.32 860.23,474.68 855.45,472.59 ZM 674.67 463.25 C674.11,462.32 680.24,447.03 681.18,447.01 C681.77,447.00 688.00,462.04 688.00,463.47 C688.00,464.30 675.17,464.09 674.67,463.25 Z" fill="rgb(253,253,253)"/>
</g>
</svg>